<?xml version="1.0" encoding="UTF-8"?>
<svg width="80px" height="67px" viewBox="0 0 80 67" version="1.1" xmlns="http://www.w3.org/2000/svg" xmlns:xlink="http://www.w3.org/1999/xlink">
    <!-- Generator: Sketch 49.1 (51147) - http://www.bohemiancoding.com/sketch -->
    <title>Logo</title>
    <desc>Created with Sketch.</desc>
    <defs></defs>
    <g id="Symbols" stroke="none" stroke-width="1" fill="none" fill-rule="evenodd">
        <g id="_Parts/Frame/Bar/Logo" transform="translate(0.000000, -7.000000)" fill="#0B0E13">
            <g id="Logo">
                <path d="M30.0456026,7.03583062 L30.1498371,7.21824104 L60.0651466,61.0814332 L19.8306189,61.0814332 L33.0684039,37.237785 L36.5081433,43.4136808 L30.0456026,55.0618893 L49.8501629,55.0618893 L26.6058632,13.2117264 L30.0456026,7.03583062 L30.0456026,7.03583062 Z M23.1661238,19.3876221 L26.6058632,25.5635179 L6.87947883,61.0553746 L3.73034936e-14,61.0553746 L23.1661238,19.3876221 L23.1661238,19.3876221 Z M79.8697068,73.0684039 L0.0260586319,73.0684039 L0.0260586319,67.0749186 L79.8957655,67.0749186 L79.8957655,73.0684039 L79.8697068,73.0684039 Z M73.0162866,61.0553746 L49.8501629,19.3876221 L46.8013029,24.8599349 L43.3876221,18.6840391 L49.8501629,7.03583062 L79.8697068,61.0814332 L73.0162866,61.0814332 L73.0162866,61.0553746 Z"></path>
            </g>
        </g>
    </g>
</svg>