<?xml version="1.0" encoding="UTF-8"?>
<svg width="16px" height="16px" viewBox="0 0 16 16" version="1.1" xmlns="http://www.w3.org/2000/svg" xmlns:xlink="http://www.w3.org/1999/xlink">
    <!-- Generator: Sketch 49.1 (51147) - http://www.bohemiancoding.com/sketch -->
    <title>Icon - Dribbble</title>
    <desc>Created with Sketch.</desc>
    <defs></defs>
    <g id="Symbols" stroke="none" stroke-width="1" fill="none" fill-rule="evenodd">
        <g id="_Parts/Frame/Bar/Footer" transform="translate(-6.000000, 0.000000)" fill="#0B0E13">
            <g id="Footer">
                <g id="Social" transform="translate(6.000000, 0.000000)">
                    <g id="Icon---Dribbble">
                        <path d="M8,15.9786153 C3.58877722,15.9786153 0,12.394584 0,7.98933557 C0,3.58397543 3.58877722,0 8,0 C12.4111669,0 16,3.58397543 16,7.98933557 C16,12.394584 12.4111669,15.9786153 8,15.9786153 Z M13.2893356,3.68431044 C13.1453378,3.87889447 12.0002233,5.34483529 9.47375768,6.37498604 C9.63271915,6.7 9.78514796,7.03065327 9.92707984,7.36342825 C9.97738693,7.4813512 10.0264098,7.5987158 10.0742602,7.71557789 C12.3480179,7.43003908 14.6071468,7.88766052 14.83244,7.93523171 C14.8173646,6.32456728 14.2410385,4.84556114 13.2893356,3.68431044 Z M6.39865997,1.3652708 C6.58754886,1.61786711 7.82864322,3.30569514 8.94835288,5.36024567 C11.3781686,4.45075377 12.4068118,3.06996092 12.5297041,2.89519821 C11.3230039,1.82601898 9.73623674,1.17560022 8,1.17560022 C7.44868788,1.17560022 6.91256281,1.24159687 6.39865997,1.3652708 Z M1.31111111,6.60206588 C1.61675042,6.60608599 4.4319933,6.61825796 7.62830821,5.77063093 C6.49609157,3.76063652 5.27498604,2.0707426 5.0948632,1.82400893 C3.18319375,2.72451145 1.75415969,4.48447795 1.31111111,6.60206588 Z M2.92339475,12.5624791 C3.07822446,12.2979341 4.95354551,9.19692909 8.47772194,8.05929648 C8.56677834,8.0305416 8.65656058,8.00357342 8.74695701,7.97811279 C8.57543272,7.59045226 8.38866555,7.20234506 8.19302066,6.82004467 C4.78051368,7.83992183 1.46923506,7.79731993 1.17024009,7.79123395 C1.16811837,7.86046901 1.1667225,7.92992741 1.1667225,7.99972083 C1.1667225,9.75237298 1.83204913,11.352708 2.92339475,12.5624791 Z M10.6691792,14.2814629 C10.56756,13.6828029 10.1707984,11.5962032 9.21144612,9.10653266 C9.19642658,9.11166946 9.18140704,9.11652708 9.16638749,9.12171971 C5.31217197,10.4629816 3.92869905,13.1322166 3.80569514,13.3832496 C4.96426577,14.2855388 6.42032384,14.8238414 8,14.8238414 C8.94656616,14.8238414 9.84874372,14.6304858 10.6691792,14.2814629 Z M14.7467895,9.08297041 C14.5130095,9.00926857 12.63177,8.44891122 10.4904523,8.79117811 C11.3841988,11.2439419 11.747962,13.2415969 11.8179229,13.6567281 C13.3509771,12.6215522 14.4422111,10.9816862 14.7467895,9.08297041 Z" id="Shape"></path>
                    </g>
                </g>
            </g>
        </g>
    </g>
</svg>