<?xml version="1.0" encoding="UTF-8"?>
<svg width="16px" height="16px" viewBox="0 0 16 16" version="1.1" xmlns="http://www.w3.org/2000/svg" xmlns:xlink="http://www.w3.org/1999/xlink">
    <!-- Generator: Sketch 49.1 (51147) - http://www.bohemiancoding.com/sketch -->
    <title>Icon - GitHub</title>
    <desc>Created with Sketch.</desc>
    <defs></defs>
    <g id="Symbols" stroke="none" stroke-width="1" fill="none" fill-rule="evenodd">
        <g id="_Parts/Frame/Bar/Footer" transform="translate(-42.000000, 0.000000)" fill="#0B0E13">
            <g id="Footer">
                <g id="Social" transform="translate(6.000000, 0.000000)">
                    <g id="Icon---GitHub" transform="translate(36.000000, 0.000000)">
                        <path d="M7.9995089,0 C3.58207489,0 0,3.58158379 0,8.0004911 C0,11.5344383 2.29195826,14.5325967 5.47133211,15.5909147 C5.87157766,15.6640884 6.01743401,15.4170657 6.01743401,15.204911 C6.01743401,15.0153468 6.01055862,14.5119705 6.00662983,13.8445672 C3.78146102,14.3278085 3.31197053,12.7720074 3.31197053,12.7720074 C2.9480663,11.8477594 2.42357274,11.6022099 2.42357274,11.6022099 C1.69723757,11.105709 2.47857581,11.115531 2.47857581,11.115531 C3.28152241,11.1724985 3.7038674,11.9400859 3.7038674,11.9400859 C4.41743401,13.1624309 5.57593616,12.8093309 6.03216697,12.6050338 C6.1048496,12.0879067 6.31111111,11.7352977 6.53996317,11.5354205 C4.76365869,11.3335789 2.89600982,10.6470227 2.89600982,7.58158379 C2.89600982,6.70841007 3.20785758,5.99435236 3.71958257,5.43499079 C3.63707796,5.23265807 3.36255371,4.4193984 3.79766728,3.31786372 C3.79766728,3.31786372 4.46949048,3.10276243 5.99779006,4.13799877 C6.63572744,3.96022099 7.32031921,3.8718232 8.0004911,3.86838551 C8.67968079,3.8718232 9.36427256,3.96022099 10.0031921,4.13799877 C11.5305095,3.10276243 12.2008594,3.31786372 12.2008594,3.31786372 C12.6374463,4.4193984 12.362922,5.23265807 12.2804174,5.43499079 C12.7931246,5.99435236 13.103008,6.70841007 13.103008,7.58158379 C13.103008,10.6548803 11.2324125,11.3311234 9.45021486,11.5290362 C9.73750767,11.7760589 9.99337017,12.2642112 9.99337017,13.0106814 C9.99337017,14.0798036 9.98354819,14.9426642 9.98354819,15.204911 C9.98354819,15.4190301 10.1274401,15.6680172 10.5335789,15.5899325 C13.709515,14.5296501 16,11.5334561 16,8.0004911 C16,3.58158379 12.4179251,0 7.9995089,0" id="Shape"></path>
                    </g>
                </g>
            </g>
        </g>
    </g>
</svg>