<?xml version="1.0" encoding="UTF-8"?>
<svg width="16px" height="12px" viewBox="0 0 16 12" version="1.1" xmlns="http://www.w3.org/2000/svg" xmlns:xlink="http://www.w3.org/1999/xlink">
    <!-- Generator: Sketch 49.1 (51147) - http://www.bohemiancoding.com/sketch -->
    <title>Icon - Mail</title>
    <desc>Created with Sketch.</desc>
    <defs></defs>
    <g id="Symbols" stroke="none" stroke-width="1" fill="none" fill-rule="evenodd">
        <g id="_Parts/Frame/Bar/Footer" transform="translate(-114.000000, -2.000000)" fill="#0B0E13">
            <g id="Footer">
                <g id="Social" transform="translate(6.000000, 0.000000)">
                    <g id="Icon---Mail" transform="translate(108.000000, 0.000000)">
                        <path d="M1.2819426,2 L14.7180574,2 C15.1638168,2 15.3254599,2.04641281 15.4884229,2.13356635 C15.6513858,2.2207199 15.7792801,2.34861419 15.8664336,2.51157715 C15.9535872,2.67454011 16,2.83618323 16,3.2819426 L16,12.7180574 C16,13.1638168 15.9535872,13.3254599 15.8664336,13.4884229 C15.7792801,13.6513858 15.6513858,13.7792801 15.4884229,13.8664336 C15.3254599,13.9535872 15.1638168,14 14.7180574,14 L1.2819426,14 C0.83618323,14 0.674540111,13.9535872 0.511577148,13.8664336 C0.348614185,13.7792801 0.220719898,13.6513858 0.133566352,13.4884229 C0.0464128056,13.3254599 2.00617683e-17,13.1638168 -3.45280103e-17,12.7180574 L3.45280103e-17,3.2819426 C-2.00617683e-17,2.83618323 0.0464128056,2.67454011 0.133566352,2.51157715 C0.220719898,2.34861419 0.348614185,2.2207199 0.511577148,2.13356635 C0.674540111,2.04641281 0.83618323,2 1.2819426,2 Z M8,8.99830636 L2.82812079,3.82727679 C2.55169982,3.55090123 2.10353288,3.55090123 1.82711191,3.82727679 C1.55069094,4.10365235 1.55069094,4.55174566 1.82711191,4.82812122 L8,10.9999952 L14.1728881,4.82812122 C14.4493091,4.55174566 14.4493091,4.10365235 14.1728881,3.82727679 C13.8964671,3.55090123 13.4483002,3.55090123 13.1718792,3.82727679 L8,8.99830636 Z" id="Base"></path>
                    </g>
                </g>
            </g>
        </g>
    </g>
</svg>